<svg xmlns="http://www.w3.org/2000/svg" width="35" height="35" fill="none" viewBox="0 0 35 35">
    <path fill="#41522E"
          d="M15.936 1.335 9.037 7.821c-3.024 2.839-5.92 5.564-6.44 6.051-.519.488-1.257 1.181-1.64 1.538-.383.36-.755.711-.826.784l-.131.13.902 1.074c.495.59.92 1.071.938 1.071.022-.003 1.65-1.512 3.618-3.355 10.33-9.67 11.998-11.225 12.017-11.22.011.006 1.285 1.2 2.833 2.653 1.545 1.454 5.037 4.734 7.755 7.29 2.718 2.557 4.955 4.65 4.968 4.65.014 0 .033-.015.041-.03.014-.023.03-.02.058.003.052.044-.028.131.927-1.018.418-.502.8-.96.853-1.019l.093-.104-2.292-2.145a8315.17 8315.17 0 0 0-6.584-6.164c-2.36-2.212-5.247-4.913-6.418-6.008L17.587.015h-.246l-1.405 1.32Z"/>
    <path fill="#41522E"
          d="M15.605 8.007 9.494 13.75l-4.299 4.043.006 8.335.008 8.335.06.12a.876.876 0 0 0 .175.223c.227.209-.065.194 4.269.194h3.904l.006-3.694c.008-3.675.008-3.692.065-3.823a.77.77 0 0 1 .367-.388c.123-.061.142-.061 3.347-.07 3.565-.009 3.412-.015 3.614.174a.8.8 0 0 1 .255.473c.022.116.03 1.318.03 3.75V35l4.058-.006 4.06-.008.082-.085c.047-.046.123-.183.172-.304l.09-.22.006-8.301.006-8.3-6.125-5.732c-3.473-3.25-6.15-5.735-6.18-5.735-.036-.003-.675.58-1.865 1.698Z"/>
</svg>